<svg width="108" height="108" viewBox="0 0 108 108" fill="none" xmlns="http://www.w3.org/2000/svg">
<g filter="url(#filter0_iii_2882_7460)">
<rect x="6.9082" y="6.9375" width="94.1836" height="94.1836" rx="11.4" fill="url(#paint0_linear_2882_7460)"/>
</g>
<rect x="6.9082" y="6.9375" width="94.1836" height="94.1836" rx="11.4" fill="url(#paint1_linear_2882_7460)"/>
<rect x="6.9082" y="6.9375" width="94.1836" height="94.1836" rx="11.4" fill="url(#paint2_radial_2882_7460)"/>
<rect x="6.9082" y="6.9375" width="94.1836" height="94.1836" rx="11.4" fill="url(#paint3_radial_2882_7460)"/>
<g filter="url(#filter1_f_2882_7460)">
<path d="M92.0009 97.1339C90.2249 98.0343 88.1886 98.5458 86.0242 98.5458H72.5804V27.4539C72.5804 25.4201 74.3505 23.7715 76.5342 23.7715H88.0472C90.2307 23.7715 92.0009 25.4201 92.0009 27.4539V97.1339Z" fill="url(#paint4_linear_2882_7460)"/>
</g>
<path d="M38.8916 6.9375H35.5166V35.2559H6.9082V38.6309H35.5166V68.9004H6.9082V72.2754H35.5166V101.121H38.8916V72.2754H69.2666V101.121H72.6416V72.2754H101.092V68.9004H72.6416V38.6309H101.092V35.2559H72.6416V6.9375H69.2666V35.2559H38.8916V6.9375ZM69.2666 38.6309V68.9004H38.8916V38.6309H69.2666Z" fill="url(#paint5_linear_2882_7460)"/>
<path d="M38.8916 6.9375H35.5166V35.2559H6.9082V38.6309H35.5166V68.9004H6.9082V72.2754H35.5166V101.121H38.8916V72.2754H69.2666V101.121H72.6416V72.2754H101.092V68.9004H72.6416V38.6309H101.092V35.2559H72.6416V6.9375H69.2666V35.2559H38.8916V6.9375ZM69.2666 38.6309V68.9004H38.8916V38.6309H69.2666Z" fill="url(#paint6_linear_2882_7460)"/>
<path d="M38.8916 6.9375H35.5166V35.2559H6.9082V38.6309H35.5166V68.9004H6.9082V72.2754H35.5166V101.121H38.8916V72.2754H69.2666V101.121H72.6416V72.2754H101.092V68.9004H72.6416V38.6309H101.092V35.2559H72.6416V6.9375H69.2666V35.2559H38.8916V6.9375ZM69.2666 38.6309V68.9004H38.8916V38.6309H69.2666Z" fill="url(#paint7_linear_2882_7460)"/>
<path d="M38.8916 6.9375H35.5166V35.2559H6.9082V38.6309H35.5166V68.9004H6.9082V72.2754H35.5166V101.121H38.8916V72.2754H69.2666V101.121H72.6416V72.2754H101.092V68.9004H72.6416V38.6309H101.092V35.2559H72.6416V6.9375H69.2666V35.2559H38.8916V6.9375ZM69.2666 38.6309V68.9004H38.8916V38.6309H69.2666Z" fill="url(#paint8_linear_2882_7460)"/>
<path d="M38.8916 6.9375H35.5166V35.2559H6.9082V38.6309H35.5166V68.9004H6.9082V72.2754H35.5166V101.121H38.8916V72.2754H69.2666V101.121H72.6416V72.2754H79.2965V68.9004H72.6416V38.6309H79.2965V35.2559H72.6416V6.9375H69.2666V35.2559H38.8916V6.9375ZM69.2666 38.6309V68.9004H38.8916V38.6309H69.2666Z" fill="url(#paint9_linear_2882_7460)"/>
<path d="M38.8916 6.9375H35.5166V35.2559H6.9082V38.6309H35.5166V68.9004H6.9082V72.2754H35.5166V101.121H38.8916V72.2754H69.2666V101.121H72.6416V72.2754H79.2965V68.9004H72.6416V38.6309H79.2965V35.2559H72.6416V6.9375H69.2666V35.2559H38.8916V6.9375ZM69.2666 38.6309V68.9004H38.8916V38.6309H69.2666Z" fill="url(#paint10_linear_2882_7460)"/>
<path d="M38.8916 6.9375H35.5166V35.2559H6.9082V38.6309H35.5166V68.9004H6.9082V72.2754H35.5166V101.121H38.8916V72.2754H69.2666V101.121H72.6416V72.2754H79.2965V68.9004H72.6416V38.6309H79.2965V35.2559H72.6416V6.9375H69.2666V35.2559H38.8916V6.9375ZM69.2666 38.6309V68.9004H38.8916V38.6309H69.2666Z" fill="url(#paint11_linear_2882_7460)"/>
<g filter="url(#filter2_f_2882_7460)">
<path d="M61.5569 99.1836C59.7808 99.6953 57.7445 99.9859 55.5801 99.9859H42.1364V59.5904C42.1364 58.4348 43.9065 57.498 46.0902 57.498H57.6032C59.7867 57.498 61.5569 58.4348 61.5569 59.5904V99.1836Z" fill="url(#paint12_linear_2882_7460)"/>
</g>
<g filter="url(#filter3_f_2882_7460)">
<path d="M30.7492 95.9733C28.9731 96.7607 26.9368 97.2081 24.7724 97.2081H11.3287V35.0367C11.3287 33.2582 13.0988 31.8164 15.2825 31.8164H26.7955C28.979 31.8164 30.7492 33.2582 30.7492 35.0367V95.9733Z" fill="url(#paint13_linear_2882_7460)"/>
</g>
<g filter="url(#filter4_i_2882_7460)">
<path d="M94.3892 99.5658C92.5698 100.556 90.4839 101.119 88.2668 101.119H74.4957V22.9289C74.4957 20.6922 76.3089 18.8789 78.5458 18.8789H90.3391C92.5758 18.8789 94.3892 20.6922 94.3892 22.9289V99.5658Z" fill="url(#paint14_linear_2882_7460)"/>
</g>
<path d="M94.3892 99.5658C92.5698 100.556 90.4839 101.119 88.2668 101.119H74.4957V22.9289C74.4957 20.6922 76.3089 18.8789 78.5458 18.8789H90.3391C92.5758 18.8789 94.3892 20.6922 94.3892 22.9289V99.5658Z" fill="url(#paint15_linear_2882_7460)"/>
<g filter="url(#filter5_f_2882_7460)">
<rect x="89.0804" y="22.0254" width="2.92031" height="75.9423" rx="1.46016" fill="url(#paint16_linear_2882_7460)"/>
</g>
<path d="M45.423 35.2559H38.8916V6.9375H35.5166V35.2559H6.9082V38.6309H35.5166V68.9004H6.9082V72.2754H35.5166V101.121H38.8916V72.2754H45.423V68.9004H38.8916V38.6309H45.423V35.2559Z" fill="url(#paint17_radial_2882_7460)"/>
<path d="M45.423 35.2559H38.8916V6.9375H35.5166V35.2559H6.9082V38.6309H35.5166V68.9004H6.9082V72.2754H35.5166V101.121H38.8916V72.2754H45.423V68.9004H38.8916V38.6309H45.423V35.2559Z" fill="url(#paint18_linear_2882_7460)"/>
<g filter="url(#filter6_i_2882_7460)">
<path d="M63.9468 101.121H44.0533V60.2356C44.0533 57.9988 45.8665 56.1855 48.1034 56.1855H59.8967C62.1334 56.1855 63.9468 57.9988 63.9468 60.2356V101.121Z" fill="url(#paint19_linear_2882_7460)"/>
</g>
<g filter="url(#filter7_f_2882_7460)">
<rect x="58.6366" y="59.25" width="2.92031" height="39.2948" rx="1.46016" fill="url(#paint20_linear_2882_7460)"/>
</g>
<g filter="url(#filter8_i_2882_7460)">
<path d="M33.5042 101.117H19.7331C17.516 101.117 15.4301 100.555 13.6108 99.5645V33.2942C13.6108 31.0574 15.4239 29.2441 17.6608 29.2441H29.4542C31.6908 29.2441 33.5042 31.0574 33.5042 33.2942V101.117Z" fill="url(#paint21_linear_2882_7460)"/>
</g>
<g filter="url(#filter9_f_2882_7460)">
<rect x="29.2892" y="31.8164" width="2.92032" height="66.7248" rx="1.46016" fill="url(#paint22_linear_2882_7460)"/>
</g>
<defs>
<filter id="filter0_iii_2882_7460" x="3.9082" y="3.9375" width="101.684" height="100.184" filterUnits="userSpaceOnUse" color-interpolation-filters="sRGB">
<feFlood flood-opacity="0" result="BackgroundImageFix"/>
<feBlend mode="normal" in="SourceGraphic" in2="BackgroundImageFix" result="shape"/>
<feColorMatrix in="SourceAlpha" type="matrix" values="0 0 0 0 0 0 0 0 0 0 0 0 0 0 0 0 0 0 127 0" result="hardAlpha"/>
<feOffset dx="-3" dy="3"/>
<feGaussianBlur stdDeviation="3"/>
<feComposite in2="hardAlpha" operator="arithmetic" k2="-1" k3="1"/>
<feColorMatrix type="matrix" values="0 0 0 0 0.878431 0 0 0 0 0.87451 0 0 0 0 0.886275 0 0 0 1 0"/>
<feBlend mode="normal" in2="shape" result="effect1_innerShadow_2882_7460"/>
<feColorMatrix in="SourceAlpha" type="matrix" values="0 0 0 0 0 0 0 0 0 0 0 0 0 0 0 0 0 0 127 0" result="hardAlpha"/>
<feOffset dx="4.5" dy="-3"/>
<feGaussianBlur stdDeviation="4.5"/>
<feComposite in2="hardAlpha" operator="arithmetic" k2="-1" k3="1"/>
<feColorMatrix type="matrix" values="0 0 0 0 0.698039 0 0 0 0 0.67451 0 0 0 0 0.721569 0 0 0 1 0"/>
<feBlend mode="normal" in2="effect1_innerShadow_2882_7460" result="effect2_innerShadow_2882_7460"/>
<feColorMatrix in="SourceAlpha" type="matrix" values="0 0 0 0 0 0 0 0 0 0 0 0 0 0 0 0 0 0 127 0" result="hardAlpha"/>
<feOffset dx="0.75"/>
<feGaussianBlur stdDeviation="0.75"/>
<feComposite in2="hardAlpha" operator="arithmetic" k2="-1" k3="1"/>
<feColorMatrix type="matrix" values="0 0 0 0 0.729412 0 0 0 0 0.729412 0 0 0 0 0.729412 0 0 0 1 0"/>
<feBlend mode="normal" in2="effect2_innerShadow_2882_7460" result="effect3_innerShadow_2882_7460"/>
</filter>
<filter id="filter1_f_2882_7460" x="69.5804" y="20.7715" width="25.4205" height="80.7734" filterUnits="userSpaceOnUse" color-interpolation-filters="sRGB">
<feFlood flood-opacity="0" result="BackgroundImageFix"/>
<feBlend mode="normal" in="SourceGraphic" in2="BackgroundImageFix" result="shape"/>
<feGaussianBlur stdDeviation="1.5" result="effect1_foregroundBlur_2882_7460"/>
</filter>
<filter id="filter2_f_2882_7460" x="39.1364" y="54.498" width="25.4205" height="48.4883" filterUnits="userSpaceOnUse" color-interpolation-filters="sRGB">
<feFlood flood-opacity="0" result="BackgroundImageFix"/>
<feBlend mode="normal" in="SourceGraphic" in2="BackgroundImageFix" result="shape"/>
<feGaussianBlur stdDeviation="1.5" result="effect1_foregroundBlur_2882_7460"/>
</filter>
<filter id="filter3_f_2882_7460" x="8.32874" y="28.8164" width="25.4205" height="71.3926" filterUnits="userSpaceOnUse" color-interpolation-filters="sRGB">
<feFlood flood-opacity="0" result="BackgroundImageFix"/>
<feBlend mode="normal" in="SourceGraphic" in2="BackgroundImageFix" result="shape"/>
<feGaussianBlur stdDeviation="1.5" result="effect1_foregroundBlur_2882_7460"/>
</filter>
<filter id="filter4_i_2882_7460" x="74.4957" y="18.8789" width="22.1434" height="82.2402" filterUnits="userSpaceOnUse" color-interpolation-filters="sRGB">
<feFlood flood-opacity="0" result="BackgroundImageFix"/>
<feBlend mode="normal" in="SourceGraphic" in2="BackgroundImageFix" result="shape"/>
<feColorMatrix in="SourceAlpha" type="matrix" values="0 0 0 0 0 0 0 0 0 0 0 0 0 0 0 0 0 0 127 0" result="hardAlpha"/>
<feOffset dx="2.25"/>
<feGaussianBlur stdDeviation="1.5"/>
<feComposite in2="hardAlpha" operator="arithmetic" k2="-1" k3="1"/>
<feColorMatrix type="matrix" values="0 0 0 0 0.203922 0 0 0 0 0.482353 0 0 0 0 0.74902 0 0 0 1 0"/>
<feBlend mode="normal" in2="shape" result="effect1_innerShadow_2882_7460"/>
</filter>
<filter id="filter5_f_2882_7460" x="86.0804" y="19.0254" width="8.92029" height="81.9414" filterUnits="userSpaceOnUse" color-interpolation-filters="sRGB">
<feFlood flood-opacity="0" result="BackgroundImageFix"/>
<feBlend mode="normal" in="SourceGraphic" in2="BackgroundImageFix" result="shape"/>
<feGaussianBlur stdDeviation="1.5" result="effect1_foregroundBlur_2882_7460"/>
</filter>
<filter id="filter6_i_2882_7460" x="44.0533" y="56.1855" width="22.1434" height="44.9355" filterUnits="userSpaceOnUse" color-interpolation-filters="sRGB">
<feFlood flood-opacity="0" result="BackgroundImageFix"/>
<feBlend mode="normal" in="SourceGraphic" in2="BackgroundImageFix" result="shape"/>
<feColorMatrix in="SourceAlpha" type="matrix" values="0 0 0 0 0 0 0 0 0 0 0 0 0 0 0 0 0 0 127 0" result="hardAlpha"/>
<feOffset dx="2.25"/>
<feGaussianBlur stdDeviation="1.5"/>
<feComposite in2="hardAlpha" operator="arithmetic" k2="-1" k3="1"/>
<feColorMatrix type="matrix" values="0 0 0 0 0.67451 0 0 0 0 0.239216 0 0 0 0 0.372549 0 0 0 1 0"/>
<feBlend mode="normal" in2="shape" result="effect1_innerShadow_2882_7460"/>
</filter>
<filter id="filter7_f_2882_7460" x="55.6366" y="56.25" width="8.92029" height="45.2949" filterUnits="userSpaceOnUse" color-interpolation-filters="sRGB">
<feFlood flood-opacity="0" result="BackgroundImageFix"/>
<feBlend mode="normal" in="SourceGraphic" in2="BackgroundImageFix" result="shape"/>
<feGaussianBlur stdDeviation="1.5" result="effect1_foregroundBlur_2882_7460"/>
</filter>
<filter id="filter8_i_2882_7460" x="13.6108" y="29.2441" width="22.1434" height="71.873" filterUnits="userSpaceOnUse" color-interpolation-filters="sRGB">
<feFlood flood-opacity="0" result="BackgroundImageFix"/>
<feBlend mode="normal" in="SourceGraphic" in2="BackgroundImageFix" result="shape"/>
<feColorMatrix in="SourceAlpha" type="matrix" values="0 0 0 0 0 0 0 0 0 0 0 0 0 0 0 0 0 0 127 0" result="hardAlpha"/>
<feOffset dx="2.25"/>
<feGaussianBlur stdDeviation="1.5"/>
<feComposite in2="hardAlpha" operator="arithmetic" k2="-1" k3="1"/>
<feColorMatrix type="matrix" values="0 0 0 0 0.415686 0 0 0 0 0.792157 0 0 0 0 0.466667 0 0 0 1 0"/>
<feBlend mode="normal" in2="shape" result="effect1_innerShadow_2882_7460"/>
</filter>
<filter id="filter9_f_2882_7460" x="26.2892" y="28.8164" width="8.92029" height="72.7246" filterUnits="userSpaceOnUse" color-interpolation-filters="sRGB">
<feFlood flood-opacity="0" result="BackgroundImageFix"/>
<feBlend mode="normal" in="SourceGraphic" in2="BackgroundImageFix" result="shape"/>
<feGaussianBlur stdDeviation="1.5" result="effect1_foregroundBlur_2882_7460"/>
</filter>
<linearGradient id="paint0_linear_2882_7460" x1="91.5469" y1="13.1074" x2="40.0781" y2="78.709" gradientUnits="userSpaceOnUse">
<stop stop-color="#D8D1E0"/>
<stop offset="1" stop-color="#D5C9E3"/>
</linearGradient>
<linearGradient id="paint1_linear_2882_7460" x1="72.4786" y1="102.007" x2="72.4786" y2="94.253" gradientUnits="userSpaceOnUse">
<stop stop-color="#A88AC4"/>
<stop offset="1" stop-color="#CDBCE0" stop-opacity="0"/>
</linearGradient>
<radialGradient id="paint2_radial_2882_7460" cx="0" cy="0" r="1" gradientUnits="userSpaceOnUse" gradientTransform="translate(101.092 55.3637) rotate(177.86) scale(18.8746 73.5878)">
<stop stop-color="#F2EDF5"/>
<stop offset="1" stop-color="#DED3E7" stop-opacity="0"/>
</radialGradient>
<radialGradient id="paint3_radial_2882_7460" cx="0" cy="0" r="1" gradientUnits="userSpaceOnUse" gradientTransform="translate(99.8539 9.77736) rotate(138.434) scale(16.6455 17.2294)">
<stop stop-color="#F7F4F7"/>
<stop offset="1" stop-color="#E2DCE5" stop-opacity="0"/>
</radialGradient>
<linearGradient id="paint4_linear_2882_7460" x1="82.2907" y1="23.7715" x2="82.2907" y2="98.5458" gradientUnits="userSpaceOnUse">
<stop stop-color="#9B98B3"/>
<stop offset="1" stop-color="#9C83AE"/>
</linearGradient>
<linearGradient id="paint5_linear_2882_7460" x1="54" y1="14.7422" x2="54" y2="101.121" gradientUnits="userSpaceOnUse">
<stop stop-color="#C2BEC6"/>
<stop offset="1" stop-color="#BAACC6"/>
</linearGradient>
<linearGradient id="paint6_linear_2882_7460" x1="73.3011" y1="103.535" x2="73.3011" y2="91.7857" gradientUnits="userSpaceOnUse">
<stop stop-color="#9E83B7"/>
<stop offset="1" stop-color="#9E83B7" stop-opacity="0"/>
</linearGradient>
<linearGradient id="paint7_linear_2882_7460" x1="3.63867" y1="58.6172" x2="21.5684" y2="58.6172" gradientUnits="userSpaceOnUse">
<stop stop-color="#96909C"/>
<stop offset="1" stop-color="#96909C" stop-opacity="0"/>
</linearGradient>
<linearGradient id="paint8_linear_2882_7460" x1="103.834" y1="60.9375" x2="90.9668" y2="60.9375" gradientUnits="userSpaceOnUse">
<stop stop-color="#D6D1DA"/>
<stop offset="1" stop-color="#D6D1DA" stop-opacity="0"/>
</linearGradient>
<linearGradient id="paint9_linear_2882_7460" x1="81.6326" y1="61.8802" x2="68.054" y2="61.8802" gradientUnits="userSpaceOnUse">
<stop offset="0.451612" stop-color="#7C7695"/>
<stop offset="1" stop-color="#7C7695" stop-opacity="0"/>
</linearGradient>
<linearGradient id="paint10_linear_2882_7460" x1="70.9741" y1="103.054" x2="70.9741" y2="95.7537" gradientUnits="userSpaceOnUse">
<stop stop-color="#9070AD"/>
<stop offset="1" stop-color="#9070AD" stop-opacity="0"/>
</linearGradient>
<linearGradient id="paint11_linear_2882_7460" x1="66.3019" y1="5.22977" x2="66.3019" y2="34.285" gradientUnits="userSpaceOnUse">
<stop offset="0.668342" stop-color="#C3BFC7"/>
<stop offset="1" stop-color="#C3BFC7" stop-opacity="0"/>
</linearGradient>
<linearGradient id="paint12_linear_2882_7460" x1="51.8467" y1="57.498" x2="51.8467" y2="99.9859" gradientUnits="userSpaceOnUse">
<stop stop-color="#9B98B3"/>
<stop offset="1" stop-color="#9C83AE"/>
</linearGradient>
<linearGradient id="paint13_linear_2882_7460" x1="21.039" y1="31.8164" x2="21.039" y2="97.2081" gradientUnits="userSpaceOnUse">
<stop stop-color="#9B98B3"/>
<stop offset="1" stop-color="#9C83AE"/>
</linearGradient>
<linearGradient id="paint14_linear_2882_7460" x1="84.4424" y1="18.8789" x2="84.4424" y2="101.119" gradientUnits="userSpaceOnUse">
<stop offset="0.179782" stop-color="#36A4F2"/>
<stop offset="1" stop-color="#3E79CB"/>
</linearGradient>
<linearGradient id="paint15_linear_2882_7460" x1="73.3102" y1="99.4014" x2="79.4425" y2="99.1094" gradientUnits="userSpaceOnUse">
<stop offset="0.0113206" stop-color="#404E95"/>
<stop offset="1" stop-color="#2F66B3" stop-opacity="0"/>
</linearGradient>
<linearGradient id="paint16_linear_2882_7460" x1="90.5406" y1="22.0254" x2="90.5406" y2="97.9677" gradientUnits="userSpaceOnUse">
<stop stop-color="#53BFFF"/>
<stop offset="1" stop-color="#508EDC"/>
</linearGradient>
<radialGradient id="paint17_radial_2882_7460" cx="0" cy="0" r="1" gradientUnits="userSpaceOnUse" gradientTransform="translate(48.3432 70.6406) rotate(-180) scale(8.32236 8.03035)">
<stop offset="0.22807" stop-color="#86738A"/>
<stop offset="1" stop-color="#86738A" stop-opacity="0"/>
</radialGradient>
<linearGradient id="paint18_linear_2882_7460" x1="5.12531" y1="58.9601" x2="20.164" y2="58.9601" gradientUnits="userSpaceOnUse">
<stop stop-color="#88858D"/>
<stop offset="1" stop-color="#88858D" stop-opacity="0"/>
</linearGradient>
<linearGradient id="paint19_linear_2882_7460" x1="54.0001" y1="56.1855" x2="54.0001" y2="101.121" gradientUnits="userSpaceOnUse">
<stop offset="0.179782" stop-color="#E93586"/>
<stop offset="1" stop-color="#DD385F"/>
</linearGradient>
<linearGradient id="paint20_linear_2882_7460" x1="60.0968" y1="59.25" x2="60.0968" y2="98.5448" gradientUnits="userSpaceOnUse">
<stop stop-color="#FA5598"/>
<stop offset="1" stop-color="#F34F70"/>
</linearGradient>
<linearGradient id="paint21_linear_2882_7460" x1="23.5575" y1="29.2441" x2="23.5575" y2="101.117" gradientUnits="userSpaceOnUse">
<stop offset="0.179782" stop-color="#ABE263"/>
<stop offset="1" stop-color="#61E19B"/>
</linearGradient>
<linearGradient id="paint22_linear_2882_7460" x1="30.7493" y1="31.8164" x2="30.7493" y2="98.5412" gradientUnits="userSpaceOnUse">
<stop stop-color="#C9FE70"/>
<stop offset="1" stop-color="#6CEDA7"/>
</linearGradient>
</defs>
</svg>
